<svg width="24" height="23" viewBox="0 0 24 23" fill="none" xmlns="http://www.w3.org/2000/svg">
<path d="M21.5871 15.3L23.0871 4.8C23.0871 4.7 23.0871 4.5 22.9871 4.4C22.8871 4.3 22.7871 4.3 22.5871 4.3H4.88711L4.18711 0.4C4.18711 0.2 3.98711 0 3.68711 0H1.28711C0.987109 0 0.787109 0.2 0.787109 0.5C0.787109 0.8 1.08711 1 1.28711 1H3.28711L5.78711 17.9C5.78711 18.1 5.98711 18.3 6.28711 18.3H20.9871C21.2871 18.3 21.4871 18.1 21.4871 17.8C21.4871 17.5 21.2871 17.3 20.9871 17.3H6.68711L6.38711 15.7H20.9871C21.2871 15.7 21.4871 15.6 21.5871 15.3ZM21.9871 5.3L20.6871 14.8H6.38711L4.98711 5.3H21.9871Z" fill="black"/>
<path d="M8.5875 18.7998C7.4875 18.7998 6.6875 19.6998 6.6875 20.6998C6.6875 21.7998 7.5875 22.6998 8.5875 22.6998C9.6875 22.6998 10.4875 21.7998 10.4875 20.7998C10.4875 19.6998 9.5875 18.7998 8.5875 18.7998ZM9.4875 20.6998C9.4875 21.1998 9.0875 21.6998 8.4875 21.6998C7.9875 21.6998 7.4875 21.2998 7.4875 20.6998C7.4875 20.0998 7.8875 19.6998 8.4875 19.6998C9.0875 19.6998 9.4875 20.1998 9.4875 20.6998Z" fill="black"/>
<path d="M18.3863 18.7998C17.2863 18.7998 16.4863 19.6998 16.4863 20.6998C16.4863 21.7998 17.3863 22.6998 18.3863 22.6998C19.3863 22.6998 20.2863 21.7998 20.2863 20.7998C20.2863 19.6998 19.3863 18.7998 18.3863 18.7998ZM18.3863 21.6998C17.8863 21.6998 17.3863 21.2998 17.3863 20.6998C17.3863 20.1998 17.7863 19.6998 18.3863 19.6998C18.8863 19.6998 19.3863 20.0998 19.3863 20.6998C19.3863 21.2998 18.8863 21.6998 18.3863 21.6998Z" fill="black"/>
</svg>
