<svg width="22" height="19" viewBox="0 0 22 19" fill="none" xmlns="http://www.w3.org/2000/svg">
<path d="M17.7398 0.423331C15.2398 -0.576669 12.5398 0.223331 10.8398 2.52333C9.03985 0.223331 6.43985 -0.576669 3.93985 0.523331C1.53985 1.52333 -0.760152 4.42333 0.239848 8.42333C0.939848 12.0233 3.73985 14.6233 6.03985 16.2233C8.43985 17.9233 10.5398 18.8233 10.7398 18.8233C10.7398 18.8233 10.8398 18.8233 10.9398 18.8233C11.0398 18.8233 11.1398 18.8233 11.1398 18.7233C11.4398 18.6233 13.4398 17.7233 15.7398 16.1233C17.9398 14.5233 20.7398 11.9233 21.5398 8.22333C22.4398 4.32333 20.1398 1.42333 17.7398 0.423331ZM17.2398 1.42333C19.3398 2.22333 21.1398 4.72333 20.3398 8.12333C19.0398 13.9233 11.7398 17.3233 10.7398 17.8233C9.53985 17.3233 2.43985 13.9233 1.13985 8.12333C0.439848 4.72333 2.23985 2.32333 4.33985 1.42333C4.93985 1.22333 5.43985 1.12333 6.03985 1.12333C8.03985 1.12333 9.53985 2.52333 10.3398 3.82333C10.4398 3.92333 10.6398 4.02333 10.7398 4.02333C10.9398 4.02333 11.0398 3.92333 11.1398 3.82333C12.3398 2.02333 14.5398 0.323331 17.2398 1.42333Z" fill="black"/>
</svg>
