<svg width="23" height="21" viewBox="0 0 23 21" fill="none" xmlns="http://www.w3.org/2000/svg">
<path d="M11.5098 14.2959C15.3098 14.2959 18.5098 11.1959 18.5098 7.2959C18.5098 3.3959 15.4098 0.295898 11.5098 0.295898C7.60977 0.295898 4.50977 3.3959 4.50977 7.2959C4.50977 11.1959 7.60977 14.2959 11.5098 14.2959ZM5.60977 7.3959C5.60977 4.1959 8.20977 1.4959 11.5098 1.4959C14.8098 1.4959 17.4098 4.0959 17.4098 7.3959C17.4098 10.6959 14.8098 13.2959 11.5098 13.2959C8.20977 13.2959 5.60977 10.5959 5.60977 7.3959Z" fill="black"/>
<path d="M21.8094 19.3959C18.8094 16.9959 15.2094 15.7959 11.4094 15.7959C7.60941 15.7959 4.10941 17.0959 1.10941 19.3959C0.909408 19.5959 0.809408 19.8959 1.00941 20.1959C1.20941 20.3959 1.50941 20.4959 1.80941 20.2959C4.60941 18.0959 7.90941 16.8959 11.5094 16.8959C15.1094 16.8959 18.4094 18.0959 21.2094 20.2959C21.3094 20.3959 21.4094 20.3959 21.5094 20.3959C21.7094 20.3959 21.8094 20.2959 21.9094 20.1959C22.1094 19.8959 22.1094 19.5959 21.8094 19.3959Z" fill="black"/>
</svg>
