<svg width="21" height="21" viewBox="0 0 21 21" fill="none" xmlns="http://www.w3.org/2000/svg">
<path d="M20.7 19.4998L17.4 16.1998C18.8 14.4998 19.5 12.2998 19.5 10.0998C19.5 4.6998 15.1 0.299805 9.7 0.299805C4.4 0.299805 0 4.6998 0 10.0998C0 15.4998 4.4 19.8998 9.8 19.8998C12.4 19.8998 14.9 18.8998 16.7 16.9998L19.9 20.1998C20 20.2998 20.1 20.3998 20.3 20.3998C20.5 20.3998 20.6 20.2998 20.7 20.1998C20.8 20.0998 20.9 19.9998 20.9 19.7998C20.9 19.6998 20.8 19.5998 20.7 19.4998ZM18.5 10.0998C18.5 14.8998 14.6 18.7998 9.8 18.7998C5 18.7998 1.1 14.8998 1.1 10.0998C1.1 5.2998 5 1.3998 9.8 1.3998C14.6 1.3998 18.5 5.2998 18.5 10.0998Z" fill="black"/>
</svg>
